<svg width="73" height="69" viewBox="0 0 73 69" fill="none" xmlns="http://www.w3.org/2000/svg">
<path fill-rule="evenodd" clip-rule="evenodd" d="M20.5317 59.4234C21.6678 59.2291 22.9388 59.0819 24.2375 59.0628C28.9182 58.9965 32.1652 60.7451 36.0806 61.5428C38.0215 61.9373 40.1632 62.0918 42.0175 61.7518C43.8719 61.4118 45.5914 60.4713 47.2068 59.494C51.4887 56.9036 66.419 47.3645 69.8609 44.3001C70.7493 43.5097 70.9076 42.1497 70.3124 41.1857C69.6865 40.1716 68.3833 40.176 67.2692 40.5057C65.0088 41.1739 55.5449 45.6822 52.3844 47.1997C52.8638 47.9856 53.2068 49.0409 53.0059 50.37C52.5808 53.1886 50.0624 54.3249 48.1333 54.3337C44.4465 54.3514 28.0386 52.1936 28.0386 52.1936C27.3966 52.1083 26.9451 51.5166 27.0286 50.8719C27.1122 50.2273 27.703 49.7725 28.3436 49.8578C28.3436 49.8578 44.492 51.9964 48.1216 51.9788C49.1125 51.9743 50.467 51.4666 50.6869 50.0183C50.939 48.3477 49.5171 47.5191 49.5171 47.5191C49.4379 47.4734 49.3661 47.4204 49.3016 47.3601C45.7336 46.1694 34.7642 42.6104 28.1398 41.6007C24.7594 41.0856 19.6947 41.9378 16.0739 42.7179L20.5317 59.4248V59.4234ZM13.491 42.1336L13.362 41.6479C13.041 40.4468 11.8096 39.733 10.6134 40.0553L4.01246 41.8318C2.81628 42.1542 2.10531 43.3905 2.42634 44.5915L7.86632 64.9737C8.18735 66.1747 9.41871 66.8886 10.6149 66.5663L17.2159 64.7912C18.412 64.4689 19.123 63.2325 18.802 62.0315C18.802 62.0315 18.5498 61.088 18.5484 61.0821C18.5484 61.0821 13.4925 42.1365 13.491 42.1336ZM21.1328 61.7106C21.6062 64.0744 20.1711 66.4338 17.8198 67.0667L11.2188 68.8417C8.77225 69.5011 6.25236 68.0396 5.5971 65.5831L0.157126 45.2009C-0.498134 42.7444 0.956037 40.2143 3.40263 39.5564L10.0036 37.7798C12.2479 37.1764 14.5523 38.3538 15.4245 40.4498C19.2945 39.6138 24.8254 38.7115 28.4916 39.2708C35.7801 40.3835 48.2359 44.515 50.766 45.3687C53.0939 44.2515 64.119 38.9838 66.6066 38.2479C68.7322 37.6194 71.1113 38.0124 72.3061 39.9464C73.4744 41.8392 73.1607 44.5106 71.4162 46.0649C67.9201 49.1778 52.7655 58.8832 48.4162 61.5149C46.5618 62.6364 44.5682 63.68 42.4382 64.0715C40.3053 64.463 37.8426 64.3084 35.613 63.8536C31.8588 63.0883 28.7584 61.3559 24.2698 61.4192C23.1762 61.4339 22.1032 61.5531 21.1328 61.7121V61.7106ZM58.0619 21.4953H54.0761C53.4281 21.4953 52.9033 20.9684 52.9033 20.3178V12.9689H46.169V20.3178C46.169 20.9684 45.6442 21.4953 44.9962 21.4953H37.677V28.257H44.9962C45.6442 28.257 46.169 28.7839 46.169 29.4344V36.7834H52.9033V29.4344C52.9033 28.7839 53.4281 28.257 54.0761 28.257H61.3953V21.4953H58.0619ZM57.3142 19.1403C59.8151 13.1705 59.5849 7.51861 56.272 4.51016C52.597 1.172 45.2689 1.27503 41.5924 7.94987C41.3857 8.32519 40.9929 8.55774 40.5663 8.55774C40.1397 8.55774 39.7468 8.32519 39.5401 7.94987C35.8651 1.27503 28.5371 1.172 24.8606 4.51016C23.4093 5.82893 22.5576 7.68346 22.2674 9.84561C21.8012 13.3206 22.7658 17.5507 25.0995 21.7882C25.1039 21.7985 25.1098 21.8073 25.1156 21.8176C27.8246 27.0913 34.6851 32.3266 40.5648 35.9547C41.6291 35.2968 42.7241 34.5859 43.822 33.8323V30.6105H36.5028C35.8549 30.6105 35.3301 30.0835 35.3301 29.433V20.3163C35.3301 19.6658 35.8549 19.1389 36.5028 19.1389H43.822V11.7899C43.822 11.1394 44.3468 10.6124 44.9948 10.6124H54.0746C54.7225 10.6124 55.2473 11.1394 55.2473 11.7899V19.1389H57.3128L57.3142 19.1403ZM43.8235 36.6671C42.9264 37.2573 42.038 37.8181 41.1717 38.3421C40.7994 38.5673 40.3332 38.5673 39.9609 38.3421C33.6047 34.4947 26.0142 28.6838 23.0414 22.9142C18.607 14.8528 18.8489 6.79446 23.2876 2.76454C27.5373 -1.09465 35.7596 -1.45378 40.5663 5.18868C45.373 -1.45378 53.5952 -1.09465 57.8449 2.76454C61.5932 6.16893 62.3613 12.4213 59.8371 19.1403H62.5666C63.2145 19.1403 63.7393 19.6673 63.7393 20.3178V29.4344C63.7393 30.085 63.2145 30.6119 62.5666 30.6119H55.2473V37.9609C55.2473 38.6114 54.7225 39.1383 54.0746 39.1383H44.9948C44.3468 39.1383 43.822 38.6114 43.822 37.9609V36.6686L43.8235 36.6671Z" fill="#394FA2"/>
</svg>
