<svg width="72" height="84" viewBox="0 0 72 84" fill="none" xmlns="http://www.w3.org/2000/svg">
<path d="M40.7846 77.8022C40.7846 80.3038 38.4174 82.3351 35.4963 82.3351C32.5752 82.3351 30.208 80.3038 30.208 77.8022" stroke="white" stroke-width="3" stroke-miterlimit="10" stroke-linecap="round"/>
<path d="M45.5029 65.4872V64.899C45.5029 54.455 57.1271 48.0682 56.6342 35.8081C56.2821 25.2755 47.7752 16.5496 37.1979 15.896C36.7519 15.868 36.3106 15.854 35.874 15.854C35.4374 15.854 34.9914 15.868 34.5501 15.896C23.9729 16.5496 15.466 25.2755 15.1139 35.8081C14.6209 48.0682 26.2451 54.455 26.2451 64.899V72.8965C26.2451 75.1888 28.1136 77.047 30.4187 77.047H41.3011C43.6016 77.047 45.4654 75.1982 45.4748 72.9105L45.5029 65.4826V65.4872Z" stroke="white" stroke-width="3" stroke-miterlimit="10" stroke-linecap="round"/>
<path d="M35.4966 9.81016V1.5" stroke="white" stroke-width="3" stroke-miterlimit="10" stroke-linecap="round"/>
<path d="M20.3873 14.3427L15.8545 7.54346" stroke="white" stroke-width="3" stroke-miterlimit="10" stroke-linecap="round"/>
<path d="M10.5664 27.1859L3.01172 24.1641" stroke="white" stroke-width="3" stroke-miterlimit="10" stroke-linecap="round"/>
<path d="M9.81064 43.0508L1.50049 44.5617" stroke="white" stroke-width="3" stroke-miterlimit="10" stroke-linecap="round"/>
<path d="M17.3654 56.6494L12.0771 62.6932" stroke="white" stroke-width="3" stroke-miterlimit="10" stroke-linecap="round"/>
<path d="M50.606 14.3427L55.8942 7.54346" stroke="white" stroke-width="3" stroke-miterlimit="10" stroke-linecap="round"/>
<path d="M60.4268 27.1859L68.7369 24.1641" stroke="white" stroke-width="3" stroke-miterlimit="10" stroke-linecap="round"/>
<path d="M61.938 43.0508L70.2481 44.5617" stroke="white" stroke-width="3" stroke-miterlimit="10" stroke-linecap="round"/>
<path d="M54.3833 56.6494L59.6716 62.6932" stroke="white" stroke-width="3" stroke-miterlimit="10" stroke-linecap="round"/>
<path d="M45.3179 65.7148H26.4312" stroke="white" stroke-width="3" stroke-miterlimit="10" stroke-linecap="round"/>
<path d="M27.1865 41.1667L34.0313 48.2111C34.2133 48.4 34.5137 48.3764 34.6684 48.1639L44.5623 34.7407" stroke="white" stroke-width="3" stroke-miterlimit="10" stroke-linecap="round"/>
</svg>
