<svg width="77" height="75" viewBox="0 0 77 75" fill="none" xmlns="http://www.w3.org/2000/svg">
<path d="M15.4509 44.0107H8.80458C7.81387 44.0107 7.01074 44.8225 7.01074 45.8238V61.0913C7.01074 62.0926 7.81387 62.9044 8.80458 62.9044H15.4509C16.4417 62.9044 17.2448 62.0926 17.2448 61.0913V45.8238C17.2448 44.8225 16.4417 44.0107 15.4509 44.0107Z" stroke="white" stroke-width="3" stroke-miterlimit="10" stroke-linecap="round"/>
<path d="M36.7063 29.8403H30.06C29.0692 29.8403 28.2661 30.6499 28.2661 31.6487V61.0958C28.2661 62.0945 29.0692 62.9042 30.06 62.9042H36.7063C37.697 62.9042 38.5002 62.0945 38.5002 61.0958V31.6487C38.5002 30.6499 37.697 29.8403 36.7063 29.8403Z" stroke="white" stroke-width="3" stroke-miterlimit="10" stroke-linecap="round"/>
<path d="M57.9617 15.6699H51.3153C50.3246 15.6699 49.5215 16.4787 49.5215 17.4764V61.0975C49.5215 62.0952 50.3246 62.904 51.3153 62.904H57.9617C58.9524 62.904 59.7555 62.0952 59.7555 61.0975V17.4764C59.7555 16.4787 58.9524 15.6699 57.9617 15.6699Z" stroke="white" stroke-width="3" stroke-miterlimit="10" stroke-linecap="round"/>
<path d="M1.5 73.1382H64.4524C67.5086 73.1382 69.9894 70.6131 69.9894 67.5022V2.28711" stroke="white" stroke-width="3" stroke-miterlimit="10" stroke-linecap="round"/>
<path d="M64.4785 9.37234L69.7367 1.63479C69.8595 1.45507 70.1188 1.45507 70.2416 1.63479L75.4998 9.37234" stroke="white" stroke-width="3" stroke-miterlimit="10" stroke-linecap="round"/>
</svg>
