<svg width="70" height="58" viewBox="0 0 70 58" fill="none" xmlns="http://www.w3.org/2000/svg">
<path fill-rule="evenodd" clip-rule="evenodd" d="M19.6818 48.9122L15.403 33.0237C18.8761 32.2805 23.7397 31.4691 26.9835 31.9604C33.3381 32.9207 43.8598 36.3027 47.2812 37.4356C47.3427 37.4927 47.4113 37.5428 47.4868 37.5873C47.4868 37.5873 48.8534 38.3778 48.6114 39.9686C48.4016 41.3493 47.0994 41.8336 46.1468 41.8378C42.6666 41.8545 27.1779 39.8225 27.1779 39.8225C26.5666 39.7432 26.0029 40.1718 25.9232 40.7814C25.8421 41.391 26.2743 41.9505 26.887 42.0312C26.887 42.0312 42.6233 44.0827 46.158 44.066C48.0044 44.0577 50.4173 42.979 50.8257 40.3041C51.0187 39.0403 50.6872 38.0355 50.227 37.2909C53.2526 35.8504 62.3391 31.561 64.5086 30.9249C65.5801 30.6118 66.832 30.609 67.4348 31.5735C68.0069 32.4921 67.8545 33.7878 66.9998 34.5407C63.6987 37.4523 49.378 46.5211 45.2725 48.9817C43.7227 49.9114 42.0721 50.805 40.2943 51.1278C38.5136 51.4507 36.4588 51.3046 34.597 50.9288C30.8427 50.1703 27.729 48.5085 23.2403 48.5712C21.994 48.5879 20.7729 48.7298 19.6832 48.9149L19.6818 48.9122ZM12.9369 32.4726L17.7865 50.4821C17.7879 50.4876 18.0299 51.3839 18.0299 51.3839C18.3376 52.5294 17.655 53.7068 16.5038 54.0144L10.1729 55.7012C9.02173 56.0074 7.83836 55.3282 7.52923 54.1828L2.31317 34.8093C2.00544 33.6639 2.68944 32.4865 3.83924 32.1789L10.1701 30.4921C11.3213 30.1859 12.5047 30.8651 12.8138 32.0105L12.9383 32.4726H12.9369ZM20.2553 51.0736C21.1897 50.9219 22.2206 50.8091 23.2711 50.7952C27.5766 50.7354 30.5504 52.3818 34.1508 53.1083C36.2896 53.5398 38.6493 53.6873 40.6943 53.3157C42.7366 52.9441 44.6473 51.9532 46.4251 50.8871C50.5963 48.3875 65.1296 39.1614 68.4825 36.2039C70.1541 34.73 70.4548 32.1928 69.3344 30.3974C68.1902 28.5617 65.9102 28.1887 63.8749 28.7858C61.4886 29.4844 50.9082 34.4948 48.6814 35.5539C46.2601 34.7439 34.3103 30.8164 27.3178 29.7586C23.8013 29.227 18.4957 30.0857 14.7833 30.879C13.9496 28.8888 11.741 27.767 9.58963 28.3404L3.25875 30.0286C0.915787 30.6535 -0.477399 33.0543 0.150654 35.3855L5.36811 54.7576C5.99616 57.0888 8.40906 58.475 10.752 57.8501L17.0829 56.1633C19.3377 55.562 20.7113 53.3185 20.2553 51.0736ZM25.9806 13.8813C26.6869 13.4749 27.5933 13.7171 28.0018 14.4199C28.4102 15.1242 28.1682 16.0246 27.4605 16.431C26.7541 16.8374 25.8477 16.5953 25.4392 15.8924C25.1315 15.3594 24.4461 15.177 23.9118 15.4846C23.3774 15.7922 23.1928 16.4728 23.5019 17.0058C24.3328 18.438 25.9834 19.1074 27.5248 18.7692L27.8591 19.3454C28.1668 19.8771 28.8523 20.0594 29.388 19.7518C29.9223 19.4456 30.107 18.7636 29.7978 18.2306L29.4635 17.6544C30.5294 16.4951 30.7714 14.7386 29.9405 13.3051C28.9152 11.5376 26.6394 10.9308 24.8629 11.9509C24.1551 12.3573 23.2501 12.1152 22.8417 11.4123C22.4332 10.7095 22.6766 9.8076 23.383 9.4012C24.0894 8.9948 24.9958 9.23697 25.4043 9.94121C25.7134 10.4729 26.3974 10.6552 26.9331 10.3476C27.4675 10.0414 27.6507 9.35945 27.343 8.82779C26.5121 7.39566 24.8615 6.72622 23.3201 7.06442L22.9858 6.48823C22.6766 5.95518 21.9926 5.77286 21.4569 6.08044C20.9226 6.38802 20.7379 7.06859 21.0471 7.60164L21.3814 8.17783C20.3155 9.33579 20.0735 11.0936 20.9044 12.5257C21.9297 14.2933 24.2055 14.9001 25.9834 13.8799L25.9806 13.8813ZM20.0497 3.65876C25.1846 0.708206 31.7603 2.46184 34.7257 7.57102C37.6912 12.6802 35.9287 19.2243 30.7924 22.1735C25.6574 25.124 19.0818 23.3704 16.1163 18.2612C13.1509 13.152 14.9134 6.60792 20.0483 3.65876H20.0497ZM43.1016 21.2396L42.6638 21.9939C42.3561 22.527 42.5379 23.2076 43.0737 23.5151C43.608 23.8227 44.2934 23.6404 44.6025 23.1073L45.0403 22.353C46.7622 22.7831 48.6324 22.051 49.5626 20.4463C50.6886 18.5076 50.0186 16.0246 48.0701 14.9043C47.1903 14.399 46.8895 13.2787 47.3973 12.4046C47.9037 11.5292 49.0311 11.23 49.9095 11.7352C50.7879 12.239 51.0901 13.3594 50.5823 14.2348C50.2732 14.7665 50.4564 15.4484 50.9922 15.756C51.5279 16.0636 52.2119 15.8813 52.521 15.3482C53.4512 13.7435 53.1547 11.7658 51.9196 10.4979L52.3574 9.74358C52.6665 9.21053 52.4833 8.52995 51.9475 8.22237C51.4132 7.91479 50.7278 8.09711 50.4187 8.63016L49.9808 9.3845C48.2589 8.95444 46.3902 9.6879 45.4586 11.2912C44.334 13.23 45.0026 15.7129 46.9511 16.8333C47.8295 17.3385 48.1317 18.4588 47.6239 19.3329C47.1161 20.2083 45.9901 20.5075 45.1117 20.0023C44.2333 19.4985 43.9311 18.3781 44.4389 17.5027C44.748 16.971 44.5648 16.2891 44.029 15.9815C43.4947 15.6739 42.8093 15.8562 42.5002 16.3893C41.5686 17.994 41.8665 19.9717 43.1016 21.2396ZM37.6086 8.46454C41.314 3.54742 48.2212 2.04848 53.703 5.19666C59.6226 8.59676 61.6537 16.1402 58.2365 22.0301C54.8192 27.9201 47.2378 29.9409 41.3182 26.5408C38.8032 25.0962 36.9904 22.9042 35.9986 20.4087C38.4381 16.9919 39.1081 12.5146 37.6086 8.46454ZM34.3788 22.2681C35.6126 24.7803 37.5848 26.9667 40.1992 28.4684C47.1889 32.4837 56.1383 30.0968 60.1738 23.1421C64.2093 16.1875 61.8103 7.28154 54.822 3.26767C48.6884 -0.25629 41.0454 1.15079 36.5386 6.24606C32.8975 0.236397 25.063 -1.7928 18.9307 1.73116C12.7257 5.29548 10.5968 13.2021 14.179 19.3746C17.7613 25.5485 25.7078 27.6668 31.9114 24.1025C32.8234 23.5778 33.6473 22.9612 34.3788 22.2681Z" fill="#394FA2"/>
</svg>
