<svg width="79" height="78" viewBox="0 0 79 78" fill="none" xmlns="http://www.w3.org/2000/svg">
<path d="M63.3776 23.8159C67.2369 29.2496 69.5 35.8663 69.5 42.9995C69.5 61.4988 54.279 76.4995 35.4977 76.4995C16.7164 76.4995 1.5 61.4988 1.5 42.9995C1.5 24.5002 16.721 9.49951 35.5023 9.49951C42.7471 9.49951 49.4583 11.7292 54.9736 15.5315" stroke="white" stroke-width="3" stroke-miterlimit="10" stroke-linecap="round"/>
<path d="M54.6884 32.477C56.4767 35.5896 57.5 39.1752 57.5 42.9995C57.5 54.8734 47.65 64.4995 35.5 64.4995C23.35 64.4995 13.5 54.8734 13.5 42.9995C13.5 31.1256 23.35 21.4995 35.5 21.4995C39.4133 21.4995 43.0868 22.495 46.2672 24.2473" stroke="white" stroke-width="3" stroke-miterlimit="10" stroke-linecap="round"/>
<path d="M45.4025 41.5127C45.4675 42.0002 45.5 42.4974 45.5 42.9995C45.5 48.8003 41.0246 53.4995 35.5 53.4995C29.9754 53.4995 25.5 48.8003 25.5 42.9995C25.5 37.1987 29.9754 32.4995 35.5 32.4995C35.9828 32.4995 36.4564 32.5336 36.916 32.6068" stroke="white" stroke-width="3" stroke-miterlimit="10" stroke-linecap="round"/>
<path d="M35.5 43.4995L74.5 3.49951" stroke="white" stroke-width="3" stroke-miterlimit="10" stroke-linecap="round"/>
<path d="M59.8575 18.4995L59.5073 12.0253C59.4742 11.8075 59.5547 11.5854 59.7203 11.4298L68.8059 1.6185C69.0567 1.383 69.4921 1.5163 69.5394 1.84957L70.5 8.4971" stroke="white" stroke-width="3" stroke-miterlimit="10" stroke-linecap="round"/>
<path d="M60.5 18.1745L66.9742 18.4928C67.192 18.523 67.4141 18.4498 67.5697 18.2993L77.381 10.0396C77.6165 9.81159 77.4832 9.41582 77.1499 9.3728L70.5024 8.49951" stroke="white" stroke-width="3" stroke-miterlimit="10" stroke-linecap="round"/>
</svg>
