<svg width="66" height="71" viewBox="0 0 66 71" fill="none" xmlns="http://www.w3.org/2000/svg">
<path fill-rule="evenodd" clip-rule="evenodd" d="M28.1086 8.93638C28.1086 8.93638 31.5215 10.5018 36.5311 7.27219C37.6593 6.54525 38.997 6.32646 40.4408 6.47467C42.2669 6.66241 44.2798 7.4571 46.1554 8.34777L46.5872 8.4127C44.7087 6.69487 41.5506 4.70885 37.43 5.42308C37.0732 5.48519 36.708 5.37368 36.4476 5.12101C36.4476 5.12101 32.7657 1.58372 27.9231 3.96779C27.4348 4.20916 26.8431 4.06801 26.5161 3.63326C24.8033 1.36069 21.9028 2.31489 20.8794 3.17733C20.5099 3.48928 19.9833 3.53163 19.5671 3.28461C19.042 2.97266 18.4319 2.75105 17.7666 2.65083C16.0976 2.40099 14.5179 2.97549 13.7068 4.07789C13.5015 4.35737 13.1774 4.52817 12.8291 4.53946C11.0186 4.59734 9.43889 5.62634 9.20249 7.19032C9.09349 7.92008 9.51108 8.51575 10.1183 8.90109C10.8728 9.37819 11.9147 9.55322 12.9211 9.29914C13.2708 9.21022 13.6417 9.2935 13.9205 9.52217C14.7458 10.2011 15.8881 10.578 16.9739 10.5455C17.9478 10.5159 18.8848 10.1475 19.4185 9.27515C19.6011 8.9759 19.9111 8.77829 20.2608 8.74018C20.6104 8.70066 20.9572 8.82628 21.2007 9.07753C22.1732 10.0811 22.9093 10.8405 23.7911 10.9351C24.649 11.0269 25.5181 10.4241 26.8034 9.1467C27.1474 8.80511 27.6712 8.71901 28.1057 8.93497L28.1086 8.93638ZM27.8764 11.2513C26.1381 12.8294 24.7622 13.3121 23.5519 13.1837C22.5228 13.0736 21.539 12.485 20.4646 11.5153C18.4658 13.2726 15.1506 13.1075 12.931 11.6028C11.1191 11.8837 9.31715 11.312 8.19179 10.259C7.26177 9.38807 6.7635 8.20239 6.96592 6.85861C7.32972 4.44207 9.49975 2.61131 12.2318 2.32195C13.5482 0.879362 15.7508 0.0677312 18.1049 0.420614C18.807 0.526479 19.4666 0.725505 20.0682 1.00075C21.883 -0.0691873 25.3129 -0.791891 27.7235 1.58654C32.5194 -0.327498 36.3145 2.12433 37.5758 3.11805C45.5581 2.08481 50.429 9.36549 50.429 9.36549C50.6767 9.73813 50.6809 10.2195 50.4403 10.5963C50.1996 10.9718 49.7594 11.1722 49.3177 11.1059L45.6529 10.5568C45.5411 10.5399 45.4321 10.506 45.3301 10.458C43.916 9.77907 42.4141 9.13541 40.9915 8.84322C39.7982 8.59903 38.67 8.58491 37.764 9.16787C33.029 12.2196 29.3967 11.6987 27.8807 11.2499L27.8764 11.2513ZM13.275 56.5022C13.275 55.8783 13.7832 55.3729 14.4075 55.3729C15.0317 55.3729 15.5399 55.8783 15.5399 56.5022V60.8567C15.5399 61.4806 15.0331 61.986 14.4075 61.986C13.7818 61.986 13.275 61.4806 13.275 60.8567V56.5022ZM49.4352 49.4502H47.6134V61.897H49.4352V49.4502ZM51.7001 48.3209V63.0263C51.7001 63.6502 51.1934 64.1555 50.5677 64.1555H46.481C45.8553 64.1555 45.3485 63.6502 45.3485 63.0263V48.3209C45.3485 47.697 45.8553 47.1917 46.481 47.1917H50.5677C51.1934 47.1917 51.7001 47.697 51.7001 48.3209ZM58.315 49.4502H56.4932V61.897H58.315V49.4502ZM60.5799 48.3209V63.0263C60.5799 63.6502 60.0731 64.1555 59.4474 64.1555H55.3607C54.7351 64.1555 54.2283 63.6502 54.2283 63.0263V48.3209C54.2283 47.697 54.7351 47.1917 55.3607 47.1917H59.4474C60.0731 47.1917 60.5799 47.697 60.5799 48.3209ZM40.5555 49.4502H38.7337V61.897H40.5555V49.4502ZM42.8204 48.3209V63.0263C42.8204 63.6502 42.3136 64.1555 41.6879 64.1555H37.6012C36.9756 64.1555 36.4688 63.6502 36.4688 63.0263V48.3209C36.4688 47.697 36.9756 47.1917 37.6012 47.1917H41.6879C42.3136 47.1917 42.8204 47.697 42.8204 48.3209ZM11.2791 68.7416H26.8742V51.1878C26.8742 50.578 26.6307 49.9922 26.1976 49.5617C25.7658 49.1297 25.1784 48.8884 24.5669 48.8884H13.5864C12.9749 48.8884 12.3875 49.1311 11.9557 49.5617C11.524 49.9922 11.2805 50.578 11.2805 51.1878V68.7416H11.2791ZM53.9041 18.755L53.4908 14.4103H39.4712L39.0578 18.755H53.9055H53.9041ZM38.4322 25.3144L37.2176 38.0619L55.8958 39.6781L54.5284 25.3144H38.4322ZM38.8427 21.0134L38.6488 23.0559H54.3161L54.1207 21.0134H38.8427ZM35.8771 40.2131L27.9104 39.5243L2.26629 37.3053V68.7416H9.01564V51.1878C9.01564 49.9781 9.49692 48.8192 10.3547 47.9638C11.2126 47.1098 12.3747 46.6285 13.5879 46.6285H24.5683C25.7814 46.6285 26.9436 47.1084 27.8014 47.9638C28.6592 48.8192 29.1405 49.9781 29.1405 51.1878V68.7416H63.7351V42.6226L57.075 42.0467C57.0622 42.0467 57.0495 42.0453 57.0353 42.0438C57.0353 42.0438 35.8828 40.2145 35.8771 40.2131ZM64.8676 71H1.13244C0.506767 71 0 70.4947 0 69.8708V36.0745C0 35.7583 0.133062 35.4562 0.366627 35.2417C0.600193 35.0271 0.913029 34.9213 1.23011 34.9495L34.9627 37.8671L36.6797 19.832C36.6811 19.7953 36.6854 19.7586 36.691 19.7219L37.3139 13.1738C37.3691 12.5937 37.8575 12.1518 38.4407 12.1518H54.5213C55.1045 12.1518 55.5943 12.5937 55.6481 13.1738C55.6481 13.1738 56.278 19.7798 56.278 19.7882C56.278 19.7882 56.6871 24.0807 56.6885 24.0892L58.1918 39.8757L64.9652 40.4615C65.5513 40.5123 66 41.0007 66 41.5865V69.8708C66 70.4947 65.4932 71 64.8676 71Z" fill="#394FA2"/>
</svg>
