<svg width="70" height="64" viewBox="0 0 70 64" fill="none" xmlns="http://www.w3.org/2000/svg">
<path fill-rule="evenodd" clip-rule="evenodd" d="M3.14165 37.4142V41.0645C3.14165 41.551 3.53382 41.9459 4.01693 41.9459C4.50004 41.9459 4.89221 41.551 4.89221 41.0645V37.4142C4.68334 37.6675 4.36932 37.8292 4.01693 37.8292C3.66454 37.8292 3.35052 37.6675 3.14165 37.4142ZM33.6587 44.7319L10.2945 51.0365C7.89603 51.6833 6.69251 54.5924 7.45555 57.4571C8.21716 60.3218 10.7038 62.2349 13.1023 61.5881L36.4664 55.2849C34.9531 54.2504 33.7368 52.5877 33.1855 50.5157C32.6342 48.4437 32.8629 46.3918 33.6587 44.7334V44.7319ZM41.0275 54.0529L59.0504 49.1892C57.5371 48.1547 56.3208 46.492 55.7695 44.42C55.2182 42.348 55.447 40.2961 56.2427 38.6376L38.2198 43.4999C35.8227 44.1481 34.6178 47.0557 35.3808 49.9204C36.1438 52.7866 38.6304 54.6983 41.0275 54.0515V54.0529ZM65.1135 38.9696C63.9767 37.6546 62.3725 36.9849 60.8053 37.4071C58.4082 38.0538 57.2032 40.9629 57.9663 43.8276C58.7279 46.6923 61.2145 48.6054 63.613 47.9586C64.4726 47.7268 65.1788 47.2031 65.696 46.4977C66.1962 45.6076 66.3355 44.4128 66.0214 43.2323C65.6193 41.7198 64.3476 40.6595 63.083 41.0015C62.2702 41.2205 61.9477 42.2393 62.2049 43.2094C62.2873 43.5214 62.4677 43.8061 62.6979 43.902C62.661 43.3668 63.0034 42.8617 63.5377 42.7172C64.143 42.5526 64.7668 42.9161 64.9302 43.5257C65.2499 44.7276 64.5707 45.8595 63.5661 46.1314C62.1068 46.5249 60.4728 45.5447 60.0081 43.8018C59.4 41.5167 60.5807 39.3044 62.4933 38.7893C63.3686 38.5532 64.278 38.6319 65.112 38.9682L65.1135 38.9696ZM57.2061 36.009V27.6267L36.8344 38.2856C35.6849 38.8881 34.3165 38.8881 33.1656 38.2856L12.7939 27.6267V44.3198C12.7939 44.7877 13.0923 45.2099 13.5413 45.6334C14.1168 46.1757 14.9352 46.6765 15.9512 47.1416L57.2061 36.009ZM57.8313 24.7191L67.5731 19.6222C67.6669 19.5721 67.7251 19.4748 67.7251 19.3689C67.7251 19.263 67.6669 19.1643 67.5731 19.1156L35.7858 2.48121C35.2927 2.22365 34.7059 2.22365 34.2128 2.48121L2.42692 19.1142C2.33314 19.1629 2.27347 19.2616 2.27347 19.3675C2.27347 19.4734 2.33314 19.5721 2.42692 19.6207C2.42692 19.6207 12.1844 24.7263 12.1929 24.7291L34.2142 36.2523C34.7073 36.5099 35.2941 36.5099 35.7872 36.2523C35.7872 36.2523 57.8242 24.722 57.8327 24.7177L57.8313 24.7191ZM2.8802 22.4382L1.37829 21.6526C0.531422 21.2091 0 20.3291 0 19.3675C0 18.4059 0.531422 17.5245 1.37829 17.0809L33.1656 0.450739C34.3151 -0.150246 35.6835 -0.150246 36.8344 0.450739L68.6217 17.0823C69.4686 17.5259 70 18.4073 70 19.3689C70 20.3305 69.4686 21.2105 68.6217 21.6541L59.4795 26.4376V35.3966L60.217 35.1977C63.7153 34.2533 67.5361 36.7674 68.6487 40.9471C69.318 43.4627 68.8377 45.9511 67.5859 47.7383C66.9095 48.873 65.8751 49.7201 64.6133 50.0607C64.5707 50.0721 64.5281 50.0807 64.4854 50.0878C64.3931 50.1179 64.2979 50.1465 64.2027 50.1723L13.6934 63.8018C10.1951 64.7462 6.37423 62.232 5.26165 58.0523C4.14907 53.8726 6.2094 49.7716 9.70912 48.8272L12.828 47.9858C12.2923 47.6023 11.8504 47.2045 11.508 46.7996C10.8444 46.0112 10.5219 45.1726 10.5219 44.3212V26.4391L5.15508 23.6302V33.6366C6.3316 34.0959 7.1671 35.2478 7.1671 36.5943V41.0659C7.1671 42.8159 5.75613 44.2368 4.01835 44.2368C2.28057 44.2368 0.8696 42.8159 0.8696 41.0659V36.5943C0.8696 35.2478 1.7051 34.0973 2.88162 33.6366V22.4411L2.8802 22.4382Z" fill="#394FA2"/>
</svg>
