<svg width="217" height="62" viewBox="0 0 217 62" fill="none" xmlns="http://www.w3.org/2000/svg">
<g clip-path="url(#clip0_121_268)">
<path d="M20.7224 61.0028V43.9924C20.7224 43.1171 20.6492 42.2824 20.5029 41.4928C20.352 40.7031 20.1097 40.0038 19.7759 39.3992C19.4375 38.7946 18.962 38.3163 18.3493 37.9598C17.7366 37.6079 16.9638 37.4274 16.0356 37.4274C15.1074 37.4274 14.2935 37.6034 13.5939 37.9598C12.8989 38.3118 12.3136 38.8036 11.8518 39.4308C11.3854 40.0579 11.0379 40.7753 10.8047 41.5875C10.5715 42.3997 10.4572 43.2434 10.4572 44.1188V61.0028H0V29.8607H10.0731V34.1742H10.2012C10.5807 33.511 11.0791 32.8522 11.6918 32.207C12.3045 31.5617 13.0224 31.0113 13.8454 30.5511C14.6685 30.0908 15.5647 29.7163 16.5386 29.423C17.5125 29.1343 18.5459 28.9854 19.6433 28.9854C21.7558 28.9854 23.5482 29.3599 25.0297 30.1134C26.5066 30.8624 27.7 31.8325 28.6099 33.0191C29.5198 34.2058 30.1691 35.573 30.5761 37.1161C30.9784 38.6592 31.1796 40.2023 31.1796 41.7454V61.0028H20.727H20.7224Z" fill="#202C59"/>
<path d="M58.9436 61.0028V56.6893H58.8156C58.4361 57.3977 57.9377 58.0655 57.325 58.6927C56.7123 59.3153 55.9944 59.8613 55.1714 60.317C54.3483 60.7772 53.4384 61.1517 52.4462 61.4405C51.4539 61.7293 50.4068 61.8782 49.3095 61.8782C47.197 61.8782 45.4137 61.5037 43.9551 60.7547C42.4965 60.0057 41.3168 59.0356 40.4069 57.8489C39.4969 56.6623 38.8431 55.3086 38.4407 53.7836C38.0383 52.263 37.8371 50.7109 37.8371 49.1271V29.8652H48.2944V46.7493C48.2944 47.6246 48.3584 48.4594 48.4864 49.249C48.6144 50.0431 48.8568 50.7515 49.2134 51.3741C49.5701 52.0013 50.0456 52.4886 50.64 52.8451C51.2299 53.2015 52.0118 53.3775 52.9857 53.3775C54.801 53.3775 56.1864 52.7142 57.1375 51.3786C58.0886 50.0431 58.5641 48.4819 58.5641 46.6861V29.8652H68.9573V61.0074H58.9436V61.0028Z" fill="#202C59"/>
<path d="M96.1178 61.0028H84.9015L72.4827 29.8607H83.9504L90.6034 50.0611H90.7954L97.4483 29.8607H108.537L96.1178 61.0028Z" fill="#202C59"/>
<path d="M112.117 61.0028V29.8607H122.51V61.0028H112.117Z" fill="#202C59"/>
<path d="M160.91 45.8063V47.0561C160.91 47.4712 160.887 47.8683 160.846 48.2428H137.97C138.052 49.1181 138.317 49.9122 138.761 50.6206C139.204 51.329 139.776 51.9426 140.471 52.466C141.17 52.9894 141.952 53.3955 142.816 53.6843C143.681 53.9776 144.581 54.122 145.51 54.122C147.16 54.122 148.55 53.8197 149.693 53.215C150.832 52.6104 151.76 51.8298 152.483 50.8688L159.707 55.3718C158.226 57.497 156.273 59.1349 153.845 60.2809C151.417 61.427 148.596 62 145.386 62C143.022 62 140.782 61.6345 138.669 60.9081C136.557 60.1816 134.709 59.1168 133.123 57.7181C131.541 56.3193 130.292 54.6002 129.382 52.5608C128.473 50.5168 128.02 48.1841 128.02 45.5581C128.02 42.9321 128.463 40.7122 129.35 38.6502C130.237 36.5882 131.44 34.8375 132.963 33.3981C134.485 31.9588 136.278 30.8443 138.349 30.0547C140.416 29.2651 142.656 28.8681 145.066 28.8681C147.476 28.8681 149.524 29.2561 151.467 30.0231C153.411 30.7947 155.08 31.9092 156.474 33.3666C157.869 34.8285 158.957 36.5972 159.739 38.6818C160.521 40.7663 160.91 43.1442 160.91 45.8108V45.8063ZM151.339 41.8673C151.339 40.2429 150.823 38.8442 149.789 37.6756C148.751 36.5115 147.201 35.9249 145.13 35.9249C144.115 35.9249 143.187 36.0828 142.341 36.3941C141.495 36.7055 140.754 37.1341 140.123 37.6756C139.492 38.217 138.985 38.8532 138.601 39.5842C138.221 40.3151 138.006 41.0731 137.97 41.8673H151.339Z" fill="#202C59"/>
<path d="M206.04 61.0028H195.587L189.378 41.6191H189.25L183.164 61.0028H172.711L161.81 29.8607H173.027L178.477 49.5603H178.669L184.311 29.8607H194.764L200.594 49.5603H200.722L206.236 29.8607H217.009L206.044 61.0028H206.04Z" fill="#202C59"/>
<path d="M111.184 23.5123C111.184 19.8349 113.859 17.1142 117.586 17.1142C121.312 17.1142 123.987 19.8349 123.987 23.5123" fill="#7EC845"/>
<path d="M131.573 4.17364C130.919 3.72244 130.219 3.35245 129.524 2.97344L129.542 2.94637C129.428 2.8832 129.305 2.84259 129.19 2.77942C128.783 2.56284 128.367 2.37334 127.947 2.17932C126.186 1.34459 124.344 0.739975 122.446 0.392548C122.441 0.392548 122.432 0.392548 122.428 0.392548C121.44 0.212066 120.448 0.0812168 119.446 0.0270723C118.957 -0.00451199 118.468 0.00902415 117.979 0.00902415C117.489 0.00902415 117 -0.00451199 116.511 0.0270723C115.505 0.0812168 114.513 0.212066 113.53 0.392548C113.525 0.392548 113.516 0.392548 113.511 0.392548C111.609 0.744487 109.767 1.34459 108.006 2.17932C107.586 2.36882 107.169 2.56284 106.762 2.77942C106.648 2.84259 106.525 2.8832 106.41 2.94637L106.429 2.97344C105.734 3.35245 105.034 3.72695 104.38 4.17364C97.7684 8.71727 94.1653 16.0223 94.1653 23.5123H97.3935C99.3002 20.3087 101.92 17.5112 105.094 15.5034C107.412 14.037 109.972 12.9857 112.638 12.3675C113.255 12.2908 113.946 12.1284 114.636 11.993C115.743 11.8306 116.863 11.7403 117.988 11.7358C119.108 11.7449 120.228 11.8351 121.335 11.993C122.025 12.1329 122.716 12.2908 123.333 12.3675C125.999 12.9857 128.559 14.0415 130.878 15.5034C134.051 17.5112 136.676 20.3087 138.578 23.5123H141.806C141.806 16.0223 138.198 8.71727 131.591 4.17364H131.573Z" fill="#202C59"/>
</g>
<defs>
<clipPath id="clip0_121_268">
<rect width="217" height="62" fill="white"/>
</clipPath>
</defs>
</svg>
